<svg width="808" height="808" viewBox="0 0 808 808" fill="none" xmlns="http://www.w3.org/2000/svg">
<rect width="808" height="808" rx="189" fill="#3B82F6"/>
<path d="M431 138C437.627 138 443 143.373 443 150V347C443 353.627 437.627 359 431 359H394C380.745 359 370 369.745 370 383V434C370 440.627 364.627 446 358 446H150C143.373 446 138 440.627 138 434V378C138 371.373 143.373 366 150 366H321.432L222.485 267.054C217.799 262.367 217.799 254.769 222.485 250.083L262.083 210.485C266.769 205.799 274.367 205.799 279.054 210.485L363 294.432V150C363 143.373 368.373 138 375 138H431Z" fill="#F6F6F6"/>
<path d="M657 366C663.627 366 669 371.373 669 378V434C669 440.627 663.627 446 657 446H513.568L610.476 542.906C615.162 547.592 615.162 555.191 610.476 559.877L570.877 599.476C566.191 604.162 558.592 604.162 553.906 599.476L455 500.568V657C455 663.627 449.627 669 443 669H387C380.373 669 375 663.627 375 657V457C375 450.373 380.373 445 387 445H435C448.255 445 459 434.255 459 421V378C459 371.373 464.373 366 471 366H657Z" fill="#F6F6F6"/>
</svg>
